<?xml version="1.0" encoding="UTF-8" standalone="no"?>
<svg
   viewBox="0 0 2466.9924 2242.7381"
   version="1.1"
   id="svg826"
   sodipodi:docname="gergo_stonks.svg"
   inkscape:version="1.1 (c68e22c387, 2021-05-23)"
   width="652.7251mm"
   height="593.39111mm"
   xmlns:inkscape="http://www.inkscape.org/namespaces/inkscape"
   xmlns:sodipodi="http://sodipodi.sourceforge.net/DTD/sodipodi-0.dtd"
   xmlns="http://www.w3.org/2000/svg"
   xmlns:svg="http://www.w3.org/2000/svg">
  <defs
     id="defs830" />
  <sodipodi:namedview
     id="namedview828"
     pagecolor="#ffffff"
     bordercolor="#cccccc"
     borderopacity="1"
     inkscape:pageshadow="0"
     inkscape:pageopacity="1"
     inkscape:pagecheckerboard="true"
     showgrid="false"
     inkscape:zoom="0.64"
     inkscape:cx="1467.1875"
     inkscape:cy="1777.3438"
     inkscape:current-layer="svg826"
     fit-margin-top="0"
     fit-margin-left="0"
     fit-margin-right="0"
     fit-margin-bottom="0"
     inkscape:document-units="mm"
     units="mm"
     inkscape:window-width="1920"
     inkscape:window-height="1017"
     inkscape:window-x="-7"
     inkscape:window-y="1072"
     inkscape:window-maximized="1" />
  <path
     d="m 1710.6532,409.92298 h 6.5 l 28,14.5 q 28,14.5 37,19 9,4.5 61.25,29.25 52.25,24.75 54,25 1.75,0.25 27.75,11.75 26,11.5 40,17 14,5.5 40.5,15 26.5,9.5 33.5,12 7,2.5 17.5,6 10.5,3.5 27,8.5 16.5,5.0001 42,12.0001 25.5,7 49.5,12.5 24,5.5 31,7 7,1.5 44.5,8.5 37.5,7 47,8.5 9.5,1.5 46.5,7.5 37,6 37.5,6 0.5,0 36,7 35.5,7 35.75,7.25 l 0.25,0.25 -1.5,74.5 q -1.5,74.5 -7.5,192.5 -6,118.00002 -9.5,165.00002 -3.5,47 -8,80.5 -4.5,33.5 -10.5,63.5 -6,30 -13,60.5 -7,30.5 -12.5,53.5 -5.5,23 -13,49.5 -7.5,26.5 -9,32 -1.5,5.5 -4.5,14 -3,8.5 -7,21 -4,12.5 -12.5,36 -8.5,23.5 -14,37.5 -5.5,14 -13.5,33.5 -8,19.5 -20.5,47 -12.5,27.5 -15,32 -2.5,4.5 -18.25,32.75 -15.75,28.25 -19,33.5 -3.25,5.25 -15.5,26.5 -12.25,21.25 -16,27 -3.75,5.75 -11.5,18 -7.75,12.25 -12.5,19 -4.75,6.75 -11,16 -6.25,9.25 -12,17 -5.75,7.75 -9,13 -3.25,5.25 -9.5,13.5 -6.25,8.25 -12,16.5 -5.75,8.25 -12.5,17 -6.75,8.75 -11.5,15 -4.75,6.25 -20.25,23.75 -15.5,17.5 -36.5,40 -21,22.5 -37,38.5 -16,16 -21.25,20.25 -5.25,4.25 -24.5,21.5 -19.25,17.25 -23.5,21 -4.25,3.75 -21,18.5 -16.75,14.75 -22,19 -5.25,4.25 -12,10 -6.75,5.75 -18.75,15.75 -12,10 -18.25,14.75 -6.25,4.75 -12,8.5 -5.75,3.75 -21,13 -15.25,9.25 -20,12.5 -4.75,3.25 -10.75,6.75 -6,3.5 -12.5,8 -6.5,4.5 -9.5,6.5 -3,2 -13,7 -10,5 -24,11.5 -14,6.5 -19.5,8.5 l -5.5,2 -6,-1.5 q -6,-1.5 -13,-5 -7,-3.5 -23.5,-12 -16.5,-8.5 -19,-10.5 -2.5,-2 -12.75,-8.75 -10.25,-6.75 -15.5,-10 -5.25,-3.25 -20.5,-12.5 -15.25,-9.25 -21,-13 -5.75,-3.75 -12,-8.5 -6.25,-4.75 -14.25,-11.25 -8,-6.5 -21.25,-17.75 -13.25,-11.25 -23,-19.5 -9.75,-8.25 -28.5,-25 -18.75,-16.75 -24,-21 -5.25,-4.25 -23,-20 -17.75,-15.75 -19.75,-17.75 -2,-2 -17.75,-17.75 -15.75,-15.75 -22,-22.5 -6.25,-6.75 -27.5,-30 -21.25,-23.25 -25.5,-28.5 -4.25,-5.25 -12.5,-15.5 -8.25,-10.25 -13,-16.5 -4.75,-6.25 -9.5,-13 -4.75,-6.75 -10,-14 -5.25,-7.25 -9.5,-13 -4.25,-5.75 -7.25,-10.25 -3,-4.5 -8.25,-11.75 -5.25,-7.25 -9,-13 -3.75,-5.75 -10,-15 -6.25,-9.25 -9.5,-14.5 -3.25,-5.25 -10.5,-16.5 -7.25,-11.25 -9.5,-15.5 -2.25,-4.25 -12.5,-21.5 -10.25,-17.25 -13.5,-22.5 -3.25,-5.25 -16.25,-28.75 -13,-23.5 -19.5,-35.5 -6.5,-12 -11.5,-22.5 -5,-10.5 -14,-31.5 -9,-21 -9,-21.5 0,-0.5 -9,-23 -9,-22.5 -14,-35.5 -5,-13 -14,-39.5 -9,-26.5 -18,-56.5 -9,-30 -20,-73 -11,-43 -15.5,-64 -4.5,-21 -12.5,-61 -8.00001,-40 -9.50001,-52.5 -1.5,-12.5 -6.5,-76.5 -5,-64 -6.5,-96.50002 -1.5,-32.5 -3.5,-69 -2,-36.5 -5.5,-119.5 -3.5,-83 -3.5,-117.5 v -34.5 l 3.25,-1.75 q 3.25,-1.75 17.75,-4.25 14.50001,-2.5 40.00001,-6.5 25.5,-4 77.5,-13 52,-9 74.5,-13 22.5,-4 59.5,-12.5 37,-8.5 64,-16 27,-7.5 46.5,-14.0001 19.5,-6.5 30.5,-10 11,-3.5 21,-7 10,-3.5 40,-15 30,-11.5 56.25,-23.25 26.25,-11.75 28,-12 1.75,-0.25 25.25,-11.25 23.5,-11 42.5,-20 19,-9 37.5,-18 18.5,-9 46,-23.5 l 27.5,-14.5 z"
     fill-rule="evenodd"
     stroke="#000000"
     stroke-width="2"
     id="path824"
     style="fill:#000000;fill-opacity:1;stroke:#ffffff;stroke-width:26.4567;stroke-miterlimit:4;stroke-dasharray:none;stroke-opacity:1" />
  <path
     id="path2926"
     style="color:#000000;font-style:normal;font-variant:normal;font-weight:normal;font-stretch:normal;font-size:medium;line-height:normal;font-family:sans-serif;font-variant-ligatures:normal;font-variant-position:normal;font-variant-caps:normal;font-variant-numeric:normal;font-variant-alternates:normal;font-feature-settings:normal;text-indent:0;text-align:start;text-decoration:none;text-decoration-line:none;text-decoration-style:solid;text-decoration-color:#000000;letter-spacing:normal;word-spacing:normal;text-transform:none;writing-mode:lr-tb;direction:ltr;text-orientation:mixed;dominant-baseline:auto;baseline-shift:baseline;text-anchor:start;white-space:normal;shape-padding:0;clip-rule:nonzero;display:inline;overflow:visible;visibility:visible;isolation:auto;mix-blend-mode:normal;color-interpolation:sRGB;color-interpolation-filters:linearRGB;solid-color:#000000;solid-opacity:1;fill:#000000;fill-opacity:1;fill-rule:evenodd;stroke:#ffffff;stroke-width:26.4567;stroke-linecap:round;stroke-linejoin:round;stroke-miterlimit:4;stroke-dasharray:none;stroke-dashoffset:0;stroke-opacity:1;color-rendering:auto;image-rendering:auto;shape-rendering:auto;text-rendering:auto;enable-background:accumulate"
     d="M 69.147648,13.568556 A 62.435075,62.435075 0 0 0 32.315208,120.60342 L 656.60239,744.89188 a 62.435075,62.435075 0 0 0 99.9734,-16.2226 l 162.9223,-325.84603 520.52951,694.02845 -68.2758,46.456 a 44.347588,44.347588 0 0 0 5.6581,76.5987 l 129.1332,62.3501 129.1333,62.3392 a 44.347588,44.347588 0 0 0 16.8148,4.3412 44.347588,44.347588 0 0 0 4.4264,0.02 v 0 a 44.347588,44.347588 0 0 0 42.2607,-47.5605 l -10.5671,-143.0101 -10.5794,-143.0129 a 44.347588,44.347588 0 0 0 -69.1682,-33.39022 l -65.5042,44.56312 -584.58171,-779.44626 a 62.435075,62.435075 0 0 0 -105.7789,9.53969 L 683.63959,595.36378 120.59653,32.320746 A 62.435075,62.435075 0 0 0 69.147648,13.568556 Z" />
</svg>
